<svg width="616" height="160" viewBox="0 0 616 160" fill="none" xmlns="http://www.w3.org/2000/svg">
<path d="M606.001 46C612.781 46 615.645 53.5295 615.645 58.5C615.645 58.5 615.659 58.4125 615.645 60.6162C615.629 62.7798 614.501 68 611.501 71.5L552.792 135H578.897H591.949H598.475H601.501H603.501C611.001 135 615.501 141 615.501 148V149.5V152V154V156C615.501 160 612.001 160 612.001 160H610.501H608.501H606.501H601.457H586.535H566.357H526.001C520.501 160 515.501 153.5 515.501 148.5V146.5V145.5V144.5C515.501 143.5 515.501 143 515.501 142.5C515.501 139.34 516.21 137.371 518.293 135.12L577.803 72H525.775C525.775 72 515.669 72 515.669 60V59.5V58V57.5C515.669 47.994 515.001 46 519.501 46H521.001H522.638H524.206H525.775H527.048H529.595H534.689H544.876H565.251H606.001Z" fill="white"/>
<path fill-rule="evenodd" clip-rule="evenodd" d="M25 0C28 0 28 0 28 3V54.4932C37.0083 49.1083 47.6284 46 59 46C91.5848 46 118 71.5198 118 103C118 134.48 91.5848 160 59 160C26.4152 160 0 134.48 0 103C0 102.666 0.00384215 102.333 0.00976562 102H0V11C1.03084e-06 4.92487 4.92487 0 11 0H25ZM59.5 71C42.103 71 28 85.103 28 102.5C28 119.897 42.103 134 59.5 134C76.897 134 91 119.897 91 102.5C91 85.103 76.897 71 59.5 71Z" fill="white"/>
<path fill-rule="evenodd" clip-rule="evenodd" d="M193.001 46C225.586 46 252.001 71.5199 252.001 103C252.001 134.48 225.586 160 193.001 160C160.417 160 134.001 133.98 134.001 102.5C134.001 71.02 160.417 46.0002 193.001 46ZM193.501 70.5C176.105 70.5002 162.001 84.6033 162.001 102C162.001 119.397 176.105 134 193.501 134C210.898 134 225.001 119.397 225.001 102C225.001 84.6031 210.898 70.5 193.501 70.5Z" fill="white"/>
<path d="M327.911 46.0281C354.421 46.0283 375.911 67.5186 375.911 94.0281V148C375.911 154.627 370.539 160 363.911 160H361.66H354.534H350.971H349.189C348.205 160 347.408 159.202 347.408 158.219V158.029V156.058V152.116V144.232V128.464V96.9285C347.407 83.435 336.468 72.4968 322.975 72.4968C308.919 72.4972 297.525 83.8915 297.525 97.947L297.506 148.005C297.503 154.63 292.132 160 285.506 160H282.751H275.376H271.689H269.845C268.827 160 268.001 159.175 268.001 158.156V158.001V156.002V152.004V144.007V128.014V96.0281C268.001 68.4141 290.387 46.0283 318.001 46.0281H327.911Z" fill="white"/>
<path d="M418.72 46C419.704 46 420.501 46.7975 420.501 47.7813L420.501 47.9406L420.502 49.8812L420.502 53.7625L420.502 61.5249L420.503 77.0498L420.505 108.1C420.505 121.593 431.508 133 445.001 133C459.057 133 470.388 121.137 470.388 107.081V58C470.388 51.3726 475.761 46 482.388 46H485.15H492.531H496.221H498.066C499.085 46 499.911 46.8261 499.911 47.8452V47.994V49.9881V53.9762V61.9524V77.9047V109.809C499.911 137.424 478.001 159.5 450.001 160H440.001C412.501 159.5 392.001 137.51 392.001 111V58C392.001 51.3726 397.374 46 404.001 46H406.251H413.376H416.939H418.72Z" fill="white"/>
</svg>
